<svg width="74" height="74" fill="none" xmlns="http://www.w3.org/2000/svg"><circle cx="37" cy="37" r="34.5" stroke="#459EDC" stroke-width="5"/><path d="M54.682 41.554c0 2.455-.492 4.869-1.344 7.21-2.473 6.8-9.22 10.403-16.338 10.403-7.119 0-13.865-3.604-16.338-10.404-.852-2.34-1.344-4.754-1.344-7.209 0-7.418 4.51-14.408 9.432-19.763A63.634 63.634 0 0137 14.3a63.634 63.634 0 018.25 7.49c4.922 5.357 9.432 12.346 9.432 19.764zM37 31.394V74m0-24.667l8.97-8.97" stroke="#459EDC" stroke-width="5"/></svg>